<?xml version="1.0" encoding="utf-8"?>
<!-- Generator: Adobe Illustrator 25.0.1, SVG Export Plug-In . SVG Version: 6.00 Build 0)  -->
<svg version="1.1" id="Layer_1" xmlns="http://www.w3.org/2000/svg" xmlns:xlink="http://www.w3.org/1999/xlink" x="0px" y="0px"
	 viewBox="0 0 4000 4000" style="enable-background:new 0 0 4000 4000;" xml:space="preserve">
<style type="text/css">
	.st0{fill-rule:evenodd;clip-rule:evenodd;fill:#040000;}
</style>
<path style="fill:#FFFFFF" class="st0" d="M2710.6,1558.05c-64.1,96.96-113.51,171.69-158.26,239.37c304.85,509.4,273.33,975.07-76.95,1301.9
	c-321.98,300.42-753.97,348.7-1092.83,105.86c545.58-840.25,1122-1662.51,1662.71-2493.18
	c-464.4-515.53-1301.15-507.57-1783.81,5.34c-423.57,450.1-476.89,1226.83-3.34,1686.97l184.42-190.08l2.92,2.83
	C1139.13,1509.64,1196.51,1115.84,1644,806.66c345.08-238.4,751.87-239.3,1001.18,9.54
	c-556.29,819.86-1114.39,1642.41-1689.94,2490.64c366.66,327.12,768.63,444.89,1213.78,308.13
	c496.06-152.43,815.2-491.65,892.18-1018.79C3118.29,2205.09,3024.56,1856.76,2710.6,1558.05z"/>
</svg>
